<!-- Generated by IcoMoon.io -->
<svg version="1.1" xmlns="http://www.w3.org/2000/svg" width="32" height="32" viewBox="0 0 32 32">
<path fill="#212121" d="M30.77 22.094l-8.443-8.503 0.937-4.617c0.242 0.096 0.498 0.146 0.759 0.146h0.005c0.008 0 0.018 0 0.027 0 1.192 0 2.158-0.966 2.158-2.158 0-1.182-0.951-2.142-2.129-2.158h-0.001c-0.009-0-0.019-0-0.029-0-1.182 0-2.141 0.951-2.156 2.129v0.001c-0.005 0.256 0.037 0.512 0.123 0.75l-4.96 0.608-8.091-8.137c-0.096-0.101-0.233-0.155-0.375-0.155s-0.274 0.055-0.375 0.151l-1.513 1.504c-0.206 0.21-0.206 0.549 0 0.754l0.814 0.827c-3.15 5.797-2.126 12.978 2.523 17.664 0.041 0.041 0.091 0.073 0.142 0.096-0.032 0.183-0.050 0.366-0.050 0.549v6.185h-6.4c-1.472 0.004-2.664 1.197-2.665 2.67v1.065c0 0.293 0.238 0.535 0.53 0.535h24.535c0.293 0 0.535-0.242 0.535-0.535v-1.065c-0.005-1.472-1.197-2.665-2.669-2.67h-6.4v-2.743c1.006 0.21 2.025 0.32 3.049 0.32 2.459 0 4.878-0.613 7.040-1.783l0.818 0.823c0.101 0.101 0.238 0.16 0.379 0.16 0.137 0 0.274-0.055 0.37-0.155l1.513-1.504c0.21-0.206 0.21-0.544 0-0.754zM23.278 6.231c0.416-0.416 1.093-0.411 1.509 0.005s0.411 1.093-0.005 1.509c-0.201 0.197-0.471 0.311-0.754 0.311-0.587-0.004-1.061-0.48-1.061-1.067 0-0.002 0-0.005 0-0.007v0c0-0.279 0.114-0.553 0.311-0.75zM22.021 9.737l-0.599 2.944-1.175-1.184 1.774-1.76zM21.417 8.832l-1.92 1.911-1.486-1.495 3.406-0.416zM24 28.8c0.887 0 1.6 0.713 1.6 1.6v0.53h-23.465v-0.53c0-0.887 0.718-1.6 1.6-1.6h20.265zM16.535 26.665v1.065h-5.335v-1.065h5.335zM11.2 25.6v-4.055c0-1.294 1.198-2.345 2.67-2.345 1.467 0 2.665 1.051 2.665 2.345v4.055h-5.335zM17.6 23.904v-2.359c0-1.883-1.673-3.415-3.73-3.415-0.016-0-0.036-0-0.055-0-1.354 0-2.543 0.707-3.218 1.772l-0.009 0.016c-4.059-4.274-4.974-10.647-2.277-15.886l18.601 18.706c-2.875 1.463-6.167 1.874-9.312 1.166zM28.891 23.218l-0.754-0.754-20.302-20.425 0.754-0.754 7.931 7.982c0.005 0 0.009 0.005 0.014 0.009l13.111 13.189-0.754 0.754z"></path>
<path fill="#2196f3" d="M13.874 20.265h-0.005c-0.887 0-1.605 0.713-1.605 1.595 0 0.001 0 0.003 0 0.005 0 0.884 0.716 1.6 1.6 1.6 0 0 0 0 0 0h0.005c0.882 0 1.6-0.713 1.6-1.6 0.005-0.882-0.713-1.6-1.595-1.6zM14.245 22.245c-0.101 0.096-0.233 0.155-0.375 0.155-0.297-0.005-0.535-0.242-0.53-0.539 0-0.142 0.055-0.274 0.155-0.375 0.101-0.096 0.233-0.155 0.375-0.155 0.293 0.005 0.53 0.242 0.53 0.535 0 0.142-0.059 0.279-0.16 0.379h0.005z"></path>
</svg>
