<!-- Generated by IcoMoon.io -->
<svg version="1.1" xmlns="http://www.w3.org/2000/svg" width="44" height="32" viewBox="0 0 44 32">
<path fill="#afb1b8" d="M3.346 26.736c0.176 0.197 0.268 0.444 0.261 0.69 0.007 0.162-0.021 0.324-0.092 0.479-0.070 0.148-0.176 0.282-0.31 0.387-0.331 0.232-0.747 0.345-1.162 0.324h-2.043v-4.367h2c0.394-0.021 0.789 0.077 1.106 0.296 0.134 0.099 0.232 0.218 0.303 0.359 0.070 0.148 0.099 0.296 0.092 0.451 0.007 0.247-0.070 0.479-0.232 0.669-0.155 0.176-0.373 0.296-0.613 0.338 0.275 0.049 0.514 0.183 0.69 0.373zM0.951 26.081h0.852c0.197 0.014 0.387-0.042 0.542-0.148 0.070-0.049 0.12-0.12 0.148-0.19 0.035-0.077 0.049-0.155 0.042-0.232 0-0.077-0.007-0.162-0.042-0.232-0.031-0.079-0.079-0.145-0.14-0.197l-0.001-0.001c-0.162-0.106-0.359-0.162-0.563-0.148h-0.838v1.148zM2.43 27.75c0.125-0.090 0.206-0.235 0.206-0.4 0-0.016-0.001-0.031-0.002-0.046l0 0.002c0.001-0.012 0.002-0.026 0.002-0.041 0-0.073-0.019-0.141-0.052-0.201l0.001 0.002c-0.036-0.082-0.089-0.15-0.154-0.203l-0.001-0.001c-0.169-0.113-0.373-0.169-0.585-0.155h-0.894v1.197h0.909c0.204 0.007 0.409-0.042 0.571-0.155zM7.445 28.617l-1.12-1.704h-0.416v1.704h-0.958v-4.367h1.81c0.458-0.028 0.916 0.106 1.268 0.373 0.254 0.239 0.409 0.549 0.43 0.88 0.028 0.331-0.077 0.655-0.296 0.923-0.225 0.239-0.528 0.394-0.866 0.444l1.19 1.747h-1.042zM5.909 26.314h0.782c0.549 0 0.817-0.218 0.817-0.662 0.001-0.010 0.001-0.022 0.001-0.033 0-0.179-0.076-0.34-0.198-0.452l-0-0c-0.176-0.134-0.394-0.197-0.62-0.176h-0.789l0.007 1.324zM12.685 27.736h-1.916l-0.338 0.88h-1l1.754-4.318h1.085l1.747 4.318h-1.007l-0.324-0.88zM12.424 27.074l-0.697-1.838-0.697 1.838h1.395zM19.242 28.617h-0.951l-2.134-2.972v2.972h-0.951v-4.367h0.951l2.134 2.986v-2.986h0.951v4.367zM24.673 27.567c-0.197 0.331-0.5 0.599-0.859 0.775-0.416 0.19-0.88 0.282-1.338 0.275h-1.697v-4.367h1.697c0.458-0.007 0.923 0.085 1.338 0.268 0.359 0.169 0.662 0.437 0.859 0.761 0.186 0.33 0.296 0.724 0.296 1.145s-0.11 0.815-0.302 1.156l0.006-0.012zM23.581 27.469c0.275-0.296 0.423-0.662 0.423-1.042s-0.148-0.754-0.423-1.042c-0.324-0.261-0.754-0.394-1.19-0.373h-0.662v2.824h0.662c0.437 0.028 0.866-0.106 1.19-0.366zM13.277-0s12.284 4.24 12.023 10.389v10.389s-12.277-4.247-12.016-10.389l-0.007-10.389zM36.245 18.348c2.317-1.465 5.001-2.367 7.797-2.634v-3.254c-3.226 1.141-5.959 3.205-7.797 5.888z"></path>
<path fill="#afb1b8" d="M34.85 19.327c1.895-3.501 5.191-6.205 9.199-7.55v-9.375s-17.496 6.050-17.122 14.798v14.798s0.775-0.275 2-0.782c0-0.472 0-0.944 0.056-1.43 0.366-4.057 2.472-7.825 5.867-10.459z"></path>
<path fill="#afb1b8" d="M33.181 24.82c0.099-1.028 0.303-2.043 0.613-3.029-2.113 2.282-3.388 5.106-3.655 8.086-0.028 0.282-0.042 0.563-0.049 0.852 1-0.437 2.155-0.986 3.367-1.627-0.31-1.409-0.401-2.846-0.275-4.282zM33.878 24.877c-0.113 1.296-0.042 2.599 0.218 3.874 4.775-2.613 10.149-6.663 9.945-11.551v-0.423c-3.416 0.345-6.614 1.712-9.093 3.888-0.585 1.345-0.944 2.768-1.071 4.212z"></path>
</svg>
