<!-- Generated by IcoMoon.io -->
<svg version="1.1" xmlns="http://www.w3.org/2000/svg" width="68" height="32" viewBox="0 0 68 32">
<path fill="#afb1b8" d="M34.545 15.037c-0.321-0.43-0.481-0.94-0.437-1.45v-2.105c0-0.641 0.146-1.129 0.437-1.464s0.794-0.503 1.501-0.503c0.67 0 1.144 0.146 1.428 0.43 0.306 0.364 0.452 0.809 0.415 1.253v0.495h-1.195v-0.495c0.007-0.168-0.007-0.328-0.036-0.495-0.017-0.117-0.078-0.217-0.166-0.283l-0.001-0.001c-0.108-0.074-0.241-0.118-0.385-0.118-0.016 0-0.032 0.001-0.047 0.002l0.002-0c-0.168-0.007-0.328 0.029-0.459 0.117-0.102 0.087-0.175 0.204-0.197 0.321-0.036 0.175-0.051 0.35-0.051 0.525v2.55c-0.015 0.24 0.036 0.488 0.153 0.714 0.066 0.073 0.146 0.131 0.24 0.175 0.095 0.036 0.204 0.051 0.313 0.036 0.153 0.015 0.299-0.029 0.423-0.117 0.092-0.075 0.156-0.182 0.175-0.303l0-0.003c0.029-0.168 0.044-0.342 0.036-0.51v-0.517h1.195v0.474c0.036 0.466-0.109 0.925-0.408 1.319-0.277 0.313-0.743 0.466-1.435 0.466-0.685 0-1.209-0.168-1.501-0.51zM39.521 15.058c-0.299-0.328-0.452-0.809-0.452-1.435v-2.207c0-0.627 0.153-1.1 0.452-1.421 0.306-0.321 0.809-0.481 1.515-0.481s1.209 0.16 1.508 0.481c0.299 0.321 0.459 0.794 0.459 1.421v2.207c0 0.619-0.16 1.1-0.466 1.428s-0.801 0.495-1.501 0.495c-0.692 0-1.209-0.168-1.515-0.488zM41.597 14.527c0.102-0.204 0.153-0.43 0.138-0.656v-2.703c0.015-0.219-0.029-0.444-0.138-0.641-0.062-0.080-0.147-0.141-0.244-0.174l-0.004-0.001c-0.072-0.030-0.155-0.048-0.243-0.048-0.025 0-0.049 0.001-0.073 0.004l0.003-0c-0.109-0.007-0.219 0-0.313 0.044-0.102 0.036-0.189 0.095-0.248 0.175-0.109 0.197-0.16 0.415-0.146 0.641v2.717c-0.015 0.226 0.036 0.452 0.146 0.656 0.073 0.066 0.153 0.124 0.255 0.16 0.095 0.036 0.197 0.058 0.306 0.058 0.102 0 0.211-0.022 0.306-0.058s0.182-0.095 0.255-0.16v-0.015zM44.438 9.58h1.289l0.962 4.080 0.991-4.080h1.253l0.124 5.886h-0.925l-0.095-4.087-0.954 4.087h-0.743l-0.991-4.101-0.095 4.101h-0.932l0.117-5.886zM50.507 9.58h2.003c1.151 0 1.734 0.561 1.734 1.676 0 1.064-0.612 1.595-1.829 1.595h-0.685v2.615h-1.231l0.007-5.886zM52.219 12.093c0.117 0.015 0.24 0.007 0.364-0.029 0.117-0.029 0.226-0.080 0.313-0.153 0.146-0.197 0.204-0.43 0.175-0.663 0.007-0.182-0.007-0.364-0.058-0.539-0.017-0.062-0.047-0.116-0.088-0.161l0 0c-0.045-0.047-0.098-0.087-0.157-0.115l-0.003-0.001c-0.168-0.073-0.357-0.102-0.546-0.095h-0.481v1.756h0.481zM56.022 9.58h1.333l1.362 5.886h-1.151l-0.27-1.355h-1.187l-0.277 1.355h-1.173l1.362-5.886zM57.158 13.427l-0.459-2.47-0.466 2.47h0.925zM59.817 9.58h0.867l1.661 3.358v-3.358h1.027v5.886h-0.823l-1.668-3.504v3.504h-1.064v-5.886zM65.776 13.223l-1.377-3.635h1.158l0.845 2.338 0.787-2.338h1.136l-1.362 3.635v2.244h-1.187v-2.244zM36.454 18.038v0.306h-1.005v2.389h-0.423v-2.389h-1.020v-0.306h2.448zM39.623 20.733h-0.328c-0.036 0.007-0.066-0.007-0.095-0.022-0.024-0.015-0.042-0.038-0.051-0.065l-0-0.001-0.291-0.641h-1.399l-0.299 0.641c-0.007 0.029-0.022 0.058-0.044 0.073-0.022 0.022-0.058 0.029-0.087 0.029h-0.328l1.238-2.695h0.43l1.253 2.681zM37.569 19.735h1.173l-0.495-1.1c-0.036-0.080-0.066-0.168-0.095-0.255-0.015 0.051-0.029 0.102-0.044 0.146l-0.044 0.109-0.495 1.1zM41.758 20.471c0.073 0.007 0.153 0.007 0.233 0 0.066-0.007 0.131-0.015 0.197-0.029 0.058-0.015 0.117-0.029 0.175-0.051s0.109-0.044 0.168-0.066v-0.605h-0.495c-0.015 0-0.022-0.007-0.036-0.007-0.015-0.007-0.022-0.007-0.029-0.015l-0.022-0.022c0-0.015-0.007-0.022-0.007-0.029v-0.211h0.962v1.034c-0.080 0.051-0.16 0.095-0.248 0.131s-0.175 0.066-0.27 0.095c-0.102 0.022-0.211 0.044-0.313 0.051-0.117 0.015-0.24 0.022-0.357 0.022-0.219 0-0.43-0.036-0.627-0.102-0.189-0.066-0.357-0.16-0.495-0.284s-0.248-0.27-0.321-0.43c-0.080-0.175-0.117-0.364-0.117-0.554 0-0.197 0.036-0.386 0.117-0.568 0.073-0.16 0.175-0.306 0.321-0.43 0.138-0.117 0.306-0.211 0.495-0.277 0.211-0.066 0.437-0.102 0.663-0.102 0.109 0 0.226 0.007 0.342 0.022 0.102 0.015 0.197 0.044 0.291 0.073 0.087 0.029 0.175 0.066 0.248 0.109 0.080 0.036 0.153 0.087 0.219 0.138l-0.124 0.168c-0.008 0.016-0.021 0.028-0.036 0.036l-0 0c-0.015 0.007-0.036 0.015-0.058 0.015-0.029 0-0.051-0.007-0.073-0.022-0.047-0.019-0.088-0.041-0.126-0.067l0.002 0.002c-0.051-0.029-0.109-0.051-0.168-0.073-0.073-0.022-0.146-0.044-0.226-0.058-0.102-0.015-0.211-0.022-0.313-0.022-0.168-0.007-0.328 0.022-0.481 0.073-0.138 0.044-0.262 0.117-0.364 0.211-0.102 0.102-0.175 0.211-0.226 0.335-0.109 0.291-0.109 0.612 0 0.903 0.051 0.124 0.138 0.24 0.248 0.335 0.102 0.095 0.226 0.168 0.357 0.219 0.16 0.044 0.328 0.066 0.495 0.051zM45.699 20.427h1.355v0.306h-1.77v-2.695h0.423l-0.007 2.389zM48.46 20.733h-0.43v-2.695h0.43v2.695zM50.033 18.053c0.022 0.007 0.044 0.029 0.058 0.051l1.814 2.032c-0.003-0.014-0.005-0.031-0.005-0.047s0.002-0.033 0.006-0.049l-0 0.001v-2.011h0.364v2.703h-0.211c-0.029 0.007-0.058 0-0.087-0.015-0.029-0.007-0.051-0.029-0.073-0.051l-1.807-2.032v2.098h-0.35v-2.695h0.219c0.022 0 0.051 0.007 0.073 0.015zM55.388 18.038v0.299h-1.501v0.889h1.217v0.284h-1.217v0.925h1.501v0.299h-1.938v-2.695h1.938zM11.044 1.37l18.788 4.611v16.143l-18.788-4.611v-16.143zM9.835 0v18.3l21.199 5.201v-18.307l-21.199-5.194z"></path>
<path fill="#afb1b8" d="M21.199 31.996l-21.199-5.201v-18.3l21.199 5.194v18.307z"></path>
<path fill="#afb1b8" d="M10.184 1.166l18.548 4.546-7.882 6.811-18.555-4.546 7.89-6.811zM9.835 0l-9.835 8.494 21.199 5.194 9.835-8.494-21.199-5.194zM22.394 30.969l8.64-7.467-8.64-2.12v9.587z"></path>
</svg>
