<!-- Generated by IcoMoon.io -->
<svg version="1.1" xmlns="http://www.w3.org/2000/svg" width="67" height="32" viewBox="0 0 67 32">
<path fill="#2196f3" d="M10.352 9.771c1.891 0 3.419 1.363 3.419 3.041s-1.528 3.041-3.419 3.041-3.419-1.363-3.419-3.041 1.528-3.041 3.419-3.041z"></path>
<path fill="#2196f3" d="M35.602 8.794c-0.008-2.332-1.048-4.562-2.907-6.216-1.851-1.647-4.365-2.576-6.996-2.576-2.623 0-5.137 0.93-6.996 2.576-1.851 1.654-2.899 3.884-2.907 6.216v12.865s19.806-1.962 19.806-12.857v-0.008zM0 25.875c0 1.623 0.725 3.183 2.017 4.325 1.292 1.15 3.041 1.796 4.869 1.804 1.828-0.008 3.577-0.654 4.861-1.796 1.292-1.15 2.025-2.702 2.025-4.325v-8.95s-13.771 1.363-13.771 8.942zM6.886 27.482c-0.355 0-0.709-0.095-1.001-0.268-0.299-0.181-0.528-0.425-0.67-0.725-0.085-0.181-0.134-0.393-0.134-0.617 0-0.108 0.011-0.213 0.033-0.314l-0.002 0.010c0.071-0.315 0.244-0.599 0.496-0.819 0.252-0.228 0.575-0.378 0.922-0.441 0.355-0.063 0.717-0.032 1.048 0.087 0.323 0.126 0.607 0.331 0.804 0.591 0.197 0.268 0.307 0.575 0.307 0.89 0 0.213-0.047 0.425-0.134 0.622-0.203 0.403-0.546 0.711-0.965 0.863l-0.012 0.004c-0.221 0.079-0.457 0.126-0.693 0.126v-0.008z"></path>
<path fill="#2196f3" d="M23.958 27.237q0.181-0.37 0.181-0.867v-0.15q0-0.496-0.181-0.875-0.134-0.284-0.355-0.473-0.071-0.055-0.15-0.11-0.071-0.039-0.142-0.071-0.276-0.126-0.607-0.126t-0.607 0.126q-0.071 0.032-0.142 0.071-0.079 0.055-0.15 0.11-0.221 0.189-0.355 0.473-0.181 0.378-0.181 0.875v0.165q0.008 0.481 0.189 0.859 0.126 0.268 0.339 0.449 0.079 0.071 0.165 0.126 0.071 0.039 0.15 0.079 0.276 0.118 0.599 0.118 0.339 0 0.614-0.134 0.071-0.032 0.134-0.071 0.087-0.055 0.173-0.126 0.197-0.181 0.323-0.449zM26.322 26.875q0.063 0.087 0.063 0.213 0 0.102-0.047 0.181-0.032 0.055-0.095 0.102-0.134 0.102-0.386 0.102-0.386 0-0.551-0.197-0.11-0.134-0.11-0.362h-0.693q0 0.244 0.095 0.441 0.032 0.071 0.071 0.134l0.008 0.008q0.165 0.236 0.481 0.378t0.701 0.142q0.559 0 0.89-0.244 0.142-0.11 0.221-0.252 0.11-0.189 0.11-0.433 0-0.221-0.087-0.402-0.063-0.142-0.181-0.252-0.276-0.268-0.867-0.441-0.315-0.102-0.481-0.213-0.118-0.079-0.15-0.181-0.016-0.047-0.016-0.095 0-0.087 0.032-0.15 0.039-0.079 0.11-0.134 0.142-0.102 0.394-0.102 0.26 0 0.41 0.126 0.032 0.032 0.063 0.071 0.079 0.118 0.079 0.291h0.693q0-0.213-0.071-0.386-0.039-0.079-0.087-0.158-0.032-0.047-0.071-0.095-0.142-0.173-0.362-0.276-0.284-0.126-0.646-0.126-0.355 0-0.646 0.118-0.284 0.118-0.441 0.331-0.063 0.087-0.095 0.189-0.055 0.142-0.055 0.299t0.047 0.299q0.126 0.315 0.528 0.536 0.205 0.11 0.567 0.228t0.496 0.221q0.047 0.039 0.079 0.087zM53.36 26.875q0.063 0.087 0.063 0.213 0 0.102-0.047 0.181-0.032 0.055-0.095 0.102-0.142 0.102-0.386 0.102-0.386 0-0.551-0.197-0.11-0.134-0.11-0.362h-0.693q0 0.244 0.087 0.441 0.032 0.071 0.079 0.134l0.008 0.008q0.165 0.236 0.473 0.378 0.323 0.142 0.709 0.142 0.559 0 0.89-0.244 0.142-0.11 0.221-0.252 0.11-0.189 0.11-0.433 0-0.221-0.087-0.402-0.071-0.142-0.181-0.252-0.276-0.268-0.867-0.441-0.315-0.102-0.481-0.213-0.118-0.079-0.158-0.181-0.008-0.047-0.008-0.095 0-0.087 0.032-0.15 0.032-0.079 0.11-0.134 0.134-0.102 0.394-0.102t0.402 0.126q0.039 0.032 0.071 0.071 0.079 0.118 0.079 0.291h0.693q0-0.213-0.079-0.386-0.032-0.079-0.079-0.158-0.032-0.047-0.071-0.095-0.142-0.173-0.362-0.276-0.284-0.126-0.646-0.126-0.355 0-0.646 0.118-0.284 0.118-0.441 0.331-0.063 0.087-0.095 0.189-0.055 0.142-0.055 0.299t0.047 0.299q0.126 0.315 0.52 0.536 0.213 0.11 0.575 0.228 0.355 0.118 0.496 0.221 0.047 0.039 0.079 0.087zM19.483 26.599h1.324v-0.559h-1.324v-0.867h1.489v-0.559h-2.182v3.356h0.693v-1.371zM29.047 25.173h1.032v-0.559h-2.742v0.559h1.016v2.797h0.693v-2.797zM31.167 26.513h1.324v-0.536h-1.324v-0.804h1.552v-0.559h-2.245v3.356h2.253v-0.551h-1.56v-0.906zM33.822 26.741h0.551l0.63 1.229h0.741v-0.032l-0.725-1.371q0.299-0.134 0.449-0.37 0.15-0.228 0.15-0.567t-0.158-0.575q-0.063-0.095-0.165-0.181-0.323-0.26-0.914-0.26h-1.253v3.356h0.693v-1.229zM38.013 27.97v-1.182h0.607q0.599 0 0.938-0.284 0.118-0.102 0.197-0.228 0.142-0.228 0.142-0.551 0-0.26-0.095-0.473-0.024-0.055-0.055-0.11-0.047-0.071-0.11-0.142-0.134-0.15-0.339-0.252-0.284-0.134-0.662-0.134h-1.316v3.356h0.693zM41.062 26.513h1.331v-0.536h-1.331v-0.804h1.56v-0.559h-2.253v3.356h2.253v-0.551h-1.56v-0.906zM44.576 25.173h1.032v-0.559h-2.742v0.559h1.016v2.797h0.693v-2.797zM46.695 26.513h1.331v-0.536h-1.331v-0.804h1.552v-0.559h-2.245v3.356h2.253v-0.551h-1.56v-0.906zM49.35 26.741h0.551l0.63 1.229h0.748v-0.032l-0.733-1.371q0.307-0.134 0.457-0.37 0.15-0.228 0.15-0.567t-0.158-0.575q-0.071-0.095-0.165-0.181-0.323-0.26-0.922-0.26h-1.245v3.356h0.685v-1.229zM23.249 25.41q0.189 0.276 0.189 0.804v0.165q-0.008 0.528-0.189 0.796-0.087 0.126-0.197 0.189-0.15 0.087-0.339 0.087-0.197 0-0.339-0.087-0.126-0.071-0.205-0.197-0.189-0.284-0.189-0.796v-0.165q0-0.528 0.189-0.796 0.079-0.118 0.197-0.189 0.142-0.087 0.339-0.087t0.339 0.087q0.118 0.071 0.205 0.189zM34.381 26.182h-0.559v-1.008h0.559q0.276 0 0.41 0.134 0.024 0.024 0.039 0.047 0.095 0.126 0.095 0.331 0 0.173-0.079 0.291-0.032 0.039-0.063 0.071l-0.008 0.008q-0.142 0.126-0.394 0.126zM38.635 26.229h-0.622v-1.056h0.638q0.205 0 0.339 0.102 0.032 0.024 0.063 0.055t0.055 0.071q0.087 0.134 0.087 0.323 0 0.197-0.087 0.315-0.024 0.032-0.055 0.055-0.142 0.134-0.418 0.134zM49.909 26.182h-0.559v-1.008h0.559q0.276 0 0.418 0.134l0.032 0.047q0.102 0.126 0.102 0.331 0 0.173-0.087 0.291-0.024 0.039-0.055 0.071-0.008 0-0.008 0.008-0.142 0.126-0.402 0.126z"></path>
</svg>
