<!-- Generated by IcoMoon.io -->
<svg version="1.1" xmlns="http://www.w3.org/2000/svg" width="25" height="32" viewBox="0 0 25 32">
<path fill="#afb1b8" d="M10.447 1.807h0.084c0.156 0 0.324 0.015 0.49 0.030 0.807 0.058 1.552 0.175 2.275 0.348l-0.095-0.019v-1.762c-0.652-0.172-1.42-0.3-2.207-0.357l-0.042-0.002c-0.254-0.020-0.571-0.035-0.889-0.043l-0.021-0h-0.263c-1.523 0.006-3.041 0.201-4.516 0.582-1.68 0.419-3.294 1.075-4.791 1.949v17.479c1.313-0.729 2.833-1.338 4.432-1.749l0.135-0.029c1.123-0.3 2.434-0.51 3.78-0.587l0.053-0.002h0.052c0.217-0.011 0.433-0.017 0.656-0.018v-1.791c-1.78 0.024-3.494 0.264-5.13 0.695l0.147-0.033c-0.603 0.157-1.185 0.326-1.732 0.513l-0.623 0.212v-13.629l0.266-0.128c1.891-0.918 4.097-1.513 6.426-1.649l0.047-0.002c0.008-0.001 0.018-0.001 0.028-0.001s0.019 0 0.029 0.001l-0.001-0c0.248-0.012 0.497-0.018 0.742-0.018h0.28c0.129 0.003 0.259 0.006 0.388 0.014zM13.633 3.608c0.356 0.028 0.77 0.044 1.188 0.044 0.006 0 0.012 0 0.018 0h-0.001c1.69-0.007 3.325-0.228 4.883-0.64l-0.135 0.030c1.734-0.443 3.254-1.052 4.666-1.832l-0.101 0.051v17.167c-1.38 0.819-2.975 1.488-4.665 1.921l-0.127 0.028c-1.353 0.363-2.909 0.574-4.512 0.581h-0.004c-0.032 0-0.070 0-0.108 0-1.178 0-2.321-0.148-3.412-0.425l0.095 0.021v-17.278c0.265 0.061 0.537 0.117 0.814 0.164 0.455 0.077 0.934 0.133 1.402 0.167zM22.37 3.741l-0.623 0.209c-0.376 0.138-0.954 0.315-1.539 0.474l-0.192 0.044c-1.551 0.415-3.333 0.657-5.17 0.664h-0.004c-0.406 0-0.78-0.011-1.141-0.034l-0.497-0.033v14.020l0.427 0.037c0.363 0.033 0.785 0.052 1.212 0.052 0.001 0 0.002 0 0.003 0h-0c1.451-0.006 2.854-0.198 4.19-0.554l-0.116 0.026c1.221-0.31 2.281-0.702 3.286-1.189l-0.102 0.044 0.267-0.128v-13.633z"></path>
<path fill="#afb1b8" d="M1.678 25.982c-0.086-0.092-0.197-0.166-0.314-0.215-0.123-0.049-0.246-0.074-0.375-0.068-0.142 0-0.277 0.025-0.4 0.074-0.117 0.049-0.228 0.117-0.314 0.209-0.085 0.088-0.153 0.192-0.201 0.307l-0.002 0.007c-0.049 0.123-0.068 0.252-0.068 0.382v2.339c-0.006 0.166 0.025 0.326 0.092 0.48 0.055 0.117 0.135 0.222 0.234 0.308 0.092 0.080 0.203 0.135 0.32 0.166 0.111 0.037 0.228 0.049 0.345 0.049 0.135 0.006 0.259-0.025 0.382-0.080 0.117-0.049 0.222-0.123 0.308-0.215s0.16-0.197 0.203-0.314c0.049-0.117 0.080-0.246 0.080-0.369v-0.265h-0.616v0.209c0.006 0.074-0.006 0.142-0.031 0.209-0.025 0.050-0.056 0.092-0.092 0.129l0-0c-0.036 0.031-0.079 0.054-0.127 0.067l-0.002 0.001c-0.037 0.012-0.080 0.025-0.123 0.025-0.008 0.001-0.018 0.001-0.028 0.001-0.048 0-0.093-0.009-0.134-0.027l0.002 0.001c-0.054-0.021-0.098-0.058-0.129-0.104l-0.001-0.001c-0.051-0.082-0.081-0.182-0.081-0.289 0-0.009 0-0.018 0.001-0.027l-0 0.001v-2.173c-0.006-0.123 0.018-0.24 0.074-0.351 0.061-0.087 0.16-0.143 0.273-0.143 0.010 0 0.020 0 0.030 0.001l-0.001-0c0.049 0 0.105 0.012 0.148 0.031 0.049 0.025 0.092 0.062 0.123 0.105 0.068 0.086 0.105 0.197 0.099 0.308v0.203h0.603v-0.234c0.006-0.142-0.018-0.283-0.074-0.412-0.043-0.123-0.111-0.234-0.203-0.326zM5.303 25.951c-0.191-0.16-0.437-0.252-0.689-0.252-0.129 0-0.252 0.018-0.369 0.062s-0.228 0.111-0.32 0.191c-0.099 0.092-0.185 0.203-0.234 0.332-0.062 0.142-0.092 0.295-0.092 0.449v2.241c-0.006 0.16 0.025 0.314 0.092 0.456 0.055 0.123 0.135 0.228 0.234 0.314 0.092 0.086 0.203 0.154 0.32 0.197s0.24 0.068 0.369 0.068c0.265-0.002 0.507-0.102 0.69-0.266l-0.001 0.001c0.098-0.086 0.178-0.191 0.234-0.314 0.062-0.142 0.092-0.295 0.086-0.456v-2.241c0-0.011 0.001-0.023 0.001-0.036 0-0.293-0.123-0.558-0.32-0.745l-0-0zM5.020 28.973c0.006 0.062 0 0.117-0.025 0.178-0.018 0.055-0.055 0.105-0.098 0.148-0.080 0.068-0.178 0.105-0.283 0.105s-0.209-0.037-0.289-0.105c-0.041-0.041-0.074-0.090-0.097-0.145l-0.001-0.003c-0.016-0.044-0.026-0.096-0.026-0.149 0-0.010 0-0.021 0.001-0.031l-0 0.001v-2.241c-0.006-0.062 0.006-0.117 0.025-0.178 0.025-0.055 0.055-0.105 0.098-0.148 0.080-0.068 0.185-0.105 0.289-0.105s0.203 0.037 0.283 0.105c0.043 0.043 0.080 0.092 0.098 0.148 0.025 0.062 0.031 0.117 0.025 0.178v2.241zM10.067 29.97v-4.235h-0.585l-0.769 2.241h-0.012l-0.776-2.241h-0.585v4.235h0.609v-2.579h0.006l0.597 1.828h0.302l0.597-1.828h0.012v2.579h0.603zM13.508 26.031c-0.092-0.105-0.209-0.185-0.339-0.234-0.142-0.043-0.289-0.068-0.443-0.062h-0.899v4.235h0.603v-1.656h0.314c0.185 0.012 0.375-0.031 0.542-0.111 0.142-0.080 0.252-0.191 0.332-0.326 0.074-0.111 0.117-0.24 0.142-0.369 0.025-0.16 0.031-0.32 0.031-0.48 0.006-0.203-0.012-0.412-0.062-0.609-0.037-0.148-0.117-0.277-0.222-0.388zM13.2 27.323c-0.006 0.074-0.025 0.154-0.055 0.222-0.037 0.062-0.092 0.117-0.16 0.148-0.086 0.037-0.185 0.055-0.283 0.055h-0.277v-1.447h0.314c0.092 0 0.185 0.018 0.271 0.055 0.062 0.037 0.111 0.092 0.142 0.154 0.031 0.080 0.049 0.16 0.055 0.24v0.283c0 0.099 0.006 0.197 0 0.289h-0.006zM16.37 25.735h-0.492l-0.936 4.235h0.603l0.178-0.911h0.825l0.178 0.911h0.603l-0.96-4.235zM15.816 28.487l0.295-1.539h0.012l0.295 1.539h-0.603zM20.273 28.29h-0.006l-0.917-2.554h-0.579v4.235h0.603v-2.548h0.012l0.923 2.548h0.572v-4.235h-0.609v2.554zM23.966 25.735l-0.486 1.68h-0.012l-0.486-1.68h-0.64l0.831 2.444v1.791h0.603v-1.791l0.831-2.444h-0.64zM-0.003 31.171h0.289v0.819h0.197v-0.819h0.289v-0.166h-0.776v0.166zM2.441 31.004l-0.382 0.985h0.209l0.080-0.228h0.394l0.086 0.228h0.215l-0.394-0.985h-0.209zM2.41 31.595l0.135-0.363 0.135 0.363h-0.271zM4.86 31.626h0.228v0.123c-0.068 0.055-0.148 0.086-0.234 0.086-0.037 0-0.080-0.006-0.117-0.025-0.037-0.015-0.068-0.038-0.092-0.067l-0-0c-0.046-0.073-0.074-0.162-0.074-0.257 0-0 0-0.001 0-0.001v0c0-0.222 0.098-0.332 0.289-0.332 0.049 0 0.098 0.012 0.135 0.037 0.043 0.031 0.074 0.074 0.086 0.123l0.191-0.037c-0.037-0.197-0.178-0.289-0.412-0.289-0.005-0-0.011-0-0.018-0-0.126 0-0.24 0.047-0.328 0.124l0.001-0c-0.049 0.049-0.092 0.111-0.117 0.178-0.025 0.062-0.031 0.135-0.025 0.203-0.006 0.135 0.037 0.265 0.123 0.369 0.049 0.049 0.105 0.086 0.172 0.111 0.062 0.025 0.135 0.037 0.203 0.031 0.154 0.006 0.302-0.049 0.419-0.154v-0.388h-0.431v0.166zM7.334 31.004h-0.203v0.985h0.689v-0.166h-0.486v-0.819z"></path>
<path fill="#afb1b8" d="M9.224 31.004h0.197v0.985h-0.197v-0.985z"></path>
<path fill="#afb1b8" d="M11.465 31.663l-0.4-0.659h-0.197v0.985h0.185v-0.646l0.4 0.646h0.197v-0.985h-0.185v0.659zM13.311 31.552h0.492v-0.166h-0.492v-0.215h0.529v-0.166h-0.726v0.985h0.745v-0.166h-0.548v-0.271zM17.792 31.392h-0.388v-0.388h-0.197v0.985h0.197v-0.431h0.388v0.431h0.197v-0.985h-0.197v0.388zM19.651 31.552h0.486v-0.166h-0.486v-0.215h0.529v-0.166h-0.732v0.985h0.751v-0.166h-0.548v-0.271zM22.169 31.552c0.172-0.025 0.259-0.117 0.259-0.271 0.002-0.010 0.002-0.021 0.002-0.032 0-0.033-0.008-0.065-0.021-0.092l0.001 0.001c-0.018-0.040-0.046-0.073-0.079-0.098l-0.001-0c-0.073-0.036-0.159-0.057-0.25-0.057-0.014 0-0.027 0-0.041 0.001l0.002-0h-0.412v0.985h0.197v-0.412h0.037c0.043-0.006 0.086 0.006 0.123 0.018 0.031 0.018 0.055 0.043 0.068 0.074l0.215 0.314h0.24l-0.123-0.191c-0.049-0.099-0.129-0.178-0.215-0.24zM21.966 31.417h-0.142v-0.246h0.154c0.068-0.006 0.135 0 0.203 0.025 0.012 0.012 0.025 0.025 0.031 0.043s0.012 0.037 0.012 0.055c-0.006 0.025-0.006 0.043-0.018 0.055-0.006 0.018-0.018 0.031-0.037 0.043-0.062 0.025-0.135 0.031-0.203 0.025zM24.065 31.552h0.492v-0.166h-0.492v-0.215h0.529v-0.166h-0.726v0.985h0.751v-0.166h-0.554v-0.271z"></path>
</svg>
