<!-- Generated by IcoMoon.io -->
<svg version="1.1" xmlns="http://www.w3.org/2000/svg" width="28" height="32" viewBox="0 0 28 32">
<path fill="#afb1b8" d="M4.11 0l4.802 4.546-8.913-0.005v22.056h23.298v-8.433l4.797 4.541v-22.704h-23.983zM23.086 4.74v12.889l-13.615-12.889h13.615zM18.859 23.37h-15.173v-14.834h1.072v13.83h14.101v1.004zM10.874 30.802c-0.058 0.086-0.092 0.192-0.092 0.305 0 0.001 0 0.003 0 0.004v-0c0 0.206 0.072 0.372 0.216 0.5s0.338 0.191 0.579 0.191q0.271 0 0.485-0.11 0.071-0.038 0.137-0.086l0.137 0.162h0.471l-0.358-0.423q0.21-0.288 0.21-0.737h-0.353c0 0.164-0.034 0.312-0.101 0.446l-0.471-0.555 0.166-0.121c0.101-0.068 0.185-0.153 0.251-0.251l0.002-0.003c0.048-0.079 0.077-0.175 0.077-0.277 0-0.001 0-0.003 0-0.004v0q0-0.116-0.042-0.212t-0.128-0.174c-0.108-0.098-0.253-0.158-0.411-0.158-0.008 0-0.017 0-0.025 0l0.001-0c-0.196 0-0.352 0.056-0.468 0.167s-0.174 0.261-0.174 0.452c0 0.078 0.018 0.159 0.055 0.243 0.038 0.084 0.105 0.185 0.199 0.304-0.18 0.13-0.302 0.241-0.362 0.336zM15.501 31.584c0.167-0.146 0.263-0.349 0.288-0.608h-0.421c-0.023 0.173-0.075 0.298-0.159 0.373s-0.209 0.112-0.375 0.112c-0.182 0-0.32-0.069-0.415-0.208q-0.141-0.208-0.141-0.603v-0.215c0.003-0.26 0.053-0.456 0.151-0.591 0.099-0.135 0.241-0.202 0.425-0.202 0.158 0 0.278 0.039 0.36 0.116s0.134 0.203 0.154 0.378h0.421c-0.027-0.267-0.122-0.473-0.286-0.619s-0.38-0.219-0.649-0.219c-0.199 0-0.376 0.048-0.528 0.143-0.153 0.098-0.273 0.236-0.347 0.398l-0.002 0.006c-0.078 0.17-0.123 0.369-0.123 0.579 0 0.010 0 0.020 0 0.030l-0-0.002v0.227c0.003 0.224 0.045 0.421 0.125 0.591s0.195 0.3 0.341 0.393c0.149 0.092 0.32 0.137 0.514 0.137 0.278 0 0.5-0.072 0.667-0.217zM17.988 31.243c0.082-0.18 0.124-0.391 0.124-0.629v-0.135c0-0.007 0-0.016 0-0.025 0-0.217-0.047-0.423-0.131-0.609l0.004 0.009q-0.096-0.208-0.256-0.34-0.048-0.039-0.1-0.072c-0.153-0.096-0.329-0.144-0.528-0.144s-0.374 0.049-0.528 0.146q-0.041 0.025-0.079 0.055-0.173 0.137-0.278 0.361c-0.079 0.176-0.126 0.382-0.126 0.599 0 0.011 0 0.021 0 0.032l-0-0.002v0.137c0.001 0.233 0.043 0.439 0.127 0.617 0.085 0.179 0.204 0.317 0.358 0.414 0.155 0.096 0.331 0.144 0.528 0.144 0.2 0 0.376-0.048 0.529-0.144 0.154-0.097 0.272-0.236 0.354-0.415zM7.269 29.333l-0.561 1.155-0.561-1.155h-0.47l0.818 1.539v0.897h0.425v-0.897l0.816-1.539h-0.468zM7.974 31.769l0.197-0.567h0.944l0.199 0.567h0.442l-0.922-2.436h-0.38l-0.92 2.436h0.44zM11.537 30.262c-0.115-0.142-0.173-0.259-0.173-0.353 0-0.082 0.024-0.149 0.071-0.203 0.044-0.049 0.108-0.080 0.179-0.080 0.004 0 0.007 0 0.011 0l-0.001-0c0.003-0 0.006-0 0.009-0 0.067 0 0.128 0.026 0.174 0.069l-0-0c0.048 0.045 0.072 0.099 0.072 0.162 0 0.002 0 0.005 0 0.008 0 0.091-0.040 0.172-0.103 0.227l-0 0-0.052 0.042-0.186 0.127zM17.536 29.867c0.103 0.144 0.154 0.351 0.154 0.621v0.127c0 0.274-0.051 0.483-0.152 0.626-0.1 0.143-0.244 0.214-0.432 0.214-0.005 0-0.011 0-0.017 0-0.172 0-0.325-0.086-0.416-0.218l-0.001-0.002c-0.104-0.146-0.156-0.353-0.156-0.621v-0.14c0.002-0.262 0.055-0.465 0.157-0.607 0.092-0.131 0.242-0.216 0.412-0.216 0.006 0 0.012 0 0.018 0l-0.001-0c0.188 0 0.332 0.072 0.434 0.216zM8.643 29.85l0.353 1.011h-0.706l0.353-1.010zM11.973 31.341c-0.104 0.084-0.238 0.136-0.384 0.137h-0q-0.149 0-0.248-0.070-0.023-0.016-0.043-0.036c-0.067-0.066-0.109-0.159-0.109-0.26 0-0.005 0-0.010 0-0.014l-0 0.001c0-0.13 0.067-0.247 0.201-0.348l0.052-0.037 0.532 0.628z"></path>
</svg>
