<!-- Generated by IcoMoon.io -->
<svg version="1.1" xmlns="http://www.w3.org/2000/svg" width="34" height="32" viewBox="0 0 34 32">
<path fill="#afb1b8" d="M5.222 31.393c0.016 0 0.023 0 0.039 0.008 0.008 0 0.016 0.008 0.031 0.016l0.163 0.163c-0.132 0.132-0.287 0.233-0.474 0.303-0.21 0.078-0.443 0.117-0.676 0.117-0.218 0-0.435-0.031-0.637-0.109-0.179-0.062-0.342-0.163-0.474-0.288-0.14-0.132-0.241-0.288-0.311-0.451-0.078-0.186-0.109-0.381-0.109-0.575s0.039-0.396 0.117-0.575c0.070-0.171 0.187-0.326 0.326-0.451 0.148-0.132 0.319-0.225 0.513-0.295 0.202-0.070 0.427-0.109 0.653-0.101 0.019-0.001 0.042-0.001 0.065-0.001 0.38 0 0.728 0.132 1.002 0.353l-0.003-0.002-0.148 0.179-0.031 0.031c-0.016 0.008-0.039 0.008-0.062 0.008-0.016 0-0.039-0.008-0.054-0.016l-0.078-0.047-0.109-0.062c-0.047-0.016-0.093-0.039-0.14-0.054-0.062-0.023-0.132-0.031-0.194-0.047-0.085-0.016-0.171-0.016-0.249-0.016-0.163-0.008-0.326 0.023-0.474 0.078-0.14 0.047-0.264 0.117-0.365 0.218-0.202 0.191-0.327 0.461-0.327 0.76 0 0.014 0 0.028 0.001 0.043l-0-0.002c-0.008 0.155 0.023 0.311 0.085 0.466 0.047 0.124 0.132 0.241 0.233 0.342 0.101 0.093 0.218 0.163 0.35 0.21 0.14 0.054 0.287 0.078 0.443 0.078 0.085 0 0.171-0.008 0.256-0.016 0.14-0.016 0.272-0.054 0.389-0.124 0.062-0.031 0.117-0.070 0.171-0.117 0.023-0.016 0.047-0.023 0.078-0.023zM10.117 30.577c0 0.194-0.039 0.389-0.117 0.575-0.070 0.163-0.179 0.311-0.319 0.443-0.14 0.124-0.311 0.225-0.497 0.288-0.42 0.14-0.878 0.14-1.29 0-0.186-0.062-0.357-0.163-0.497-0.288-0.14-0.132-0.249-0.288-0.326-0.451-0.148-0.373-0.148-0.777 0-1.15 0.078-0.163 0.186-0.319 0.326-0.451 0.14-0.124 0.311-0.218 0.497-0.28 0.412-0.14 0.87-0.14 1.29 0 0.187 0.070 0.357 0.163 0.497 0.295 0.14 0.124 0.249 0.28 0.319 0.443 0.078 0.179 0.117 0.381 0.117 0.575zM9.674 30.577c0-0.155-0.023-0.311-0.085-0.458-0.047-0.132-0.124-0.249-0.225-0.35-0.101-0.092-0.219-0.165-0.35-0.215l-0.008-0.003c-0.303-0.101-0.637-0.101-0.932 0-0.14 0.054-0.264 0.124-0.365 0.218-0.101 0.101-0.179 0.218-0.225 0.35-0.109 0.295-0.109 0.622 0 0.917 0.047 0.124 0.124 0.249 0.225 0.342s0.225 0.171 0.365 0.218c0.295 0.101 0.629 0.101 0.932 0 0.14-0.047 0.256-0.124 0.357-0.218 0.101-0.101 0.179-0.218 0.225-0.342 0.062-0.148 0.085-0.303 0.085-0.458zM13.458 31.059l0.039 0.101c0.023-0.031 0.031-0.070 0.054-0.101 0.016-0.031 0.031-0.070 0.054-0.101l1.080-1.709c0.023-0.031 0.039-0.047 0.062-0.054 0.031-0.008 0.062-0.008 0.085-0.008h0.326v2.782h-0.381v-2.23l-1.088 1.733c-0.016 0.031-0.039 0.047-0.070 0.062-0.023 0.016-0.054 0.023-0.093 0.023h-0.054c-0.039 0-0.070-0.008-0.093-0.023-0.031-0.016-0.054-0.031-0.070-0.062l-1.119-1.741v2.23h-0.365v-2.774h0.319c0.031 0 0.062 0 0.093 0.008 0.023 0.008 0.047 0.031 0.054 0.054l1.111 1.709c0.016 0.031 0.039 0.070 0.054 0.101zM17.53 30.919v1.041h-0.427v-2.774h0.948c0.179-0.008 0.357 0.016 0.528 0.062 0.14 0.031 0.264 0.093 0.373 0.171 0.172 0.144 0.28 0.358 0.28 0.598 0 0.011-0 0.022-0.001 0.033l0-0.002c0.008 0.117-0.023 0.241-0.078 0.35-0.052 0.113-0.128 0.208-0.223 0.278l-0.002 0.001c-0.109 0.085-0.241 0.148-0.373 0.186-0.171 0.047-0.342 0.070-0.513 0.062l-0.513-0.008zM17.53 30.623h0.513c0.109 0 0.225-0.016 0.326-0.047 0.085-0.023 0.171-0.062 0.241-0.117 0.059-0.051 0.106-0.113 0.139-0.183l0.001-0.003c0.039-0.070 0.054-0.148 0.054-0.233 0-0.078-0.008-0.155-0.047-0.225-0.034-0.075-0.084-0.138-0.146-0.186l-0.001-0.001c-0.148-0.098-0.33-0.156-0.526-0.156-0.014 0-0.029 0-0.043 0.001l0.002-0h-0.513v1.15zM23.226 31.968h-0.334c-0.039 0-0.070-0.008-0.093-0.031-0.024-0.015-0.043-0.036-0.054-0.061l-0-0.001-0.288-0.668h-1.453l-0.295 0.668c-0.008 0.023-0.031 0.047-0.054 0.062-0.023 0.023-0.062 0.031-0.093 0.031h-0.334l1.267-2.782h0.443l1.29 2.782zM21.128 30.934h1.197l-0.505-1.134c-0.034-0.071-0.065-0.156-0.090-0.244l-0.003-0.012-0.054 0.14c-0.016 0.047-0.031 0.085-0.047 0.117l-0.497 1.134zM25.052 29.194c0.031 0.016 0.047 0.031 0.070 0.054l1.849 2.098v-2.16h0.381v2.782h-0.21c-0.031 0-0.062-0.008-0.093-0.016-0.025-0.014-0.045-0.032-0.062-0.054l-0-0-1.857-2.098c0.008 0.039 0.008 0.070 0 0.101v2.067h-0.373v-2.782h0.225c0.023 0 0.047 0 0.070 0.008zM30.475 30.857v1.111h-0.427v-1.111l-1.173-1.671h0.381c0.039 0 0.070 0.008 0.093 0.023s0.039 0.039 0.054 0.062l0.738 1.080c0.031 0.047 0.054 0.085 0.078 0.132l0.047 0.117 0.054-0.124c0.023-0.039 0.047-0.085 0.078-0.124l0.723-1.088c0.016-0.023 0.031-0.039 0.054-0.062 0.023-0.016 0.054-0.023 0.093-0.023h0.381l-1.173 1.678zM13.248 24.516c0.179 0.023 0.365 0.039 0.559 0.054 2.86-1.111 5.276-2.929 6.947-5.229 1.678-2.3 2.541-4.973 2.471-7.693l-3.147-2.743c0.637 2.898 0.342 5.89-0.87 8.648-1.204 2.759-3.271 5.167-5.96 6.962z"></path>
<path fill="#afb1b8" d="M12.122 24.392l0.085 0.016c2.875-1.795 5.074-4.289 6.294-7.172 1.228-2.883 1.43-6.022 0.583-9.006l-4.483-3.901c1.811 3.209 2.541 6.791 2.106 10.342s-2.028 6.923-4.585 9.721zM27.336 14.857c-0.762 2.992-2.611 5.688-5.276 7.685-0.777 0.591-1.616 1.111-2.51 1.57 2.168-0.559 4.165-1.539 5.836-2.867 1.663-1.329 2.953-2.976 3.776-4.81l-1.826-1.577z"></path>
<path fill="#afb1b8" d="M26.621 14.422l-2.588-2.253c-0.047 2.564-0.886 5.074-2.432 7.265-1.546 2.183-3.73 3.978-6.341 5.183h0.016c0.575 0 1.158-0.031 1.733-0.093 2.44-0.863 4.592-2.238 6.271-4.002s2.828-3.862 3.341-6.1zM12.495 2.689l-3.093-2.689c-2.758 0.925-5.136 2.556-6.815 4.678s-2.58 4.631-2.588 7.203c0.008 2.844 1.111 5.602 3.124 7.84 2.020 2.246 4.841 3.831 8.019 4.522 2.836-2.999 4.491-6.714 4.74-10.591 0.241-3.87-0.948-7.716-3.388-10.964zM33.77 14.003c-0.016-3.372-1.562-6.605-4.313-8.99-2.743-2.385-6.465-3.73-10.35-3.745-1.795 0-3.574 0.288-5.245 0.855l18.929 16.442c0.645-1.453 0.979-2.999 0.979-4.561z"></path>
</svg>
