<!-- Generated by IcoMoon.io -->
<svg version="1.1" xmlns="http://www.w3.org/2000/svg" width="38" height="32" viewBox="0 0 38 32">
<path fill="#afb1b8" d="M37.647 3.369c-1.412 0.621-2.899 1.035-4.461 1.224 1.6-0.96 2.824-2.447 3.407-4.273-1.506 0.904-3.144 1.525-4.894 1.882-1.419-1.503-3.423-2.44-5.646-2.447h-0.001c-4.262 0-7.718 3.455-7.718 7.718v0c0 0.621 0.056 1.205 0.188 1.769-6.433-0.325-12.091-3.387-15.874-8.035l-0.031-0.040c-0.678 1.148-1.054 2.466-1.054 3.896 0 2.673 1.374 5.045 3.426 6.419-1.242-0.019-2.466-0.395-3.482-0.96v0.094c0 3.746 2.673 6.852 6.174 7.586-0.621 0.169-1.318 0.245-2.014 0.245-0.508 0-0.998-0.019-1.468-0.132 1.023 3.090 3.847 5.296 7.199 5.383l0.010 0c-2.606 2.053-5.936 3.292-9.556 3.292-0.652 0-1.296-0.040-1.927-0.119l0.076 0.008c3.407 2.202 7.454 3.464 11.84 3.464 14.193 0 21.948-11.765 21.948-21.967 0-0.339 0-0.659-0.019-0.998 1.525-1.092 2.824-2.447 3.878-4.009z"></path>
</svg>
