<!-- Generated by IcoMoon.io -->
<svg version="1.1" xmlns="http://www.w3.org/2000/svg" width="32" height="32" viewBox="0 0 32 32">
<path fill="#afb1b8" d="M31.984 32v-0.016h0.016v-11.728c0-5.744-1.248-10.16-7.952-10.16-3.232 0-5.392 1.76-6.272 3.44h-0.096v-2.912h-6.368v21.36h6.624v-10.576c0-2.784 0.528-5.472 3.984-5.472 3.392 0 3.44 3.184 3.44 5.648v10.416h6.624zM0.528 10.624h6.624v21.36h-6.624v-21.36zM3.84 0c-2.128 0-3.84 1.712-3.84 3.84 0 2.112 1.712 3.872 3.84 3.872 2.112 0 3.84-1.76 3.84-3.872 0-2.121-1.719-3.84-3.84-3.84v0z"></path>
</svg>
