<!-- Generated by IcoMoon.io -->
<svg version="1.1" xmlns="http://www.w3.org/2000/svg" width="32" height="32" viewBox="0 0 32 32">
<path fill="#fff" d="M32 6.064c-1.2 0.528-2.464 0.88-3.792 1.040 1.36-0.816 2.4-2.080 2.896-3.616-1.28 0.752-2.672 1.28-4.16 1.584-1.206-1.277-2.91-2.074-4.799-2.080h-0.001c-3.623 0-6.56 2.937-6.56 6.56v0c0 0.528 0.048 1.024 0.16 1.504-5.468-0.276-10.277-2.879-13.493-6.83l-0.027-0.034c-0.576 0.976-0.896 2.096-0.896 3.312 0 2.272 1.168 4.288 2.912 5.456-1.056-0.032-2.096-0.336-2.96-0.816v0.080c0.003 3.162 2.232 5.804 5.205 6.44l0.043 0.008c-0.528 0.144-1.12 0.208-1.712 0.208-0.432 0-0.848-0.016-1.248-0.112 0.87 2.626 3.27 4.501 6.119 4.576l0.009 0c-2.215 1.745-5.046 2.798-8.122 2.798-0.555 0-1.101-0.034-1.638-0.101l0.064 0.006c2.896 1.872 6.336 2.944 10.064 2.944 12.064 0 18.656-10 18.656-18.672 0-0.288 0-0.56-0.016-0.848 1.296-0.928 2.4-2.080 3.296-3.408z"></path>
</svg>
